HIERARCHY
ROOT Hips
{
	OFFSET	0.00	0.00	0.00
	CHANNELS 6 Xposition Yposition Zposition Zrotation Xrotation Yrotation
	JOINT LeftUpLeg
	{
		OFFSET	 0.126116	-0.065224	 0.014019
		CHANNELS 3 Zrotation Xrotation Yrotation
		JOINT LeftLeg
		{
			OFFSET	 0.000000	 0.569914	 0.000000
			CHANNELS 3 Zrotation Xrotation Yrotation
			JOINT LeftFoot
			{
				OFFSET	 0.000000	 0.544423	 0.000000
				CHANNELS 3 Zrotation Xrotation Yrotation
				JOINT LeftToeBase
				{
					OFFSET	 0.000000	 0.207117	 0.000000
					CHANNELS 3 Zrotation Xrotation Yrotation
					End Site
					{
						OFFSET	 0.000000	 0.207117	 0.000000
					}
				}
			}
		}
	}
	JOINT RightUpLeg
	{
		OFFSET	-0.124023	-0.065224	 0.008373
		CHANNELS 3 Zrotation Xrotation Yrotation
		JOINT RightLeg
		{
			OFFSET	 0.000000	 0.570047	 0.000000
			CHANNELS 3 Zrotation Xrotation Yrotation
			JOINT RightFoot
			{
				OFFSET	 0.000000	 0.544354	 0.000000
				CHANNELS 3 Zrotation Xrotation Yrotation
				JOINT RightToeBase
				{
					OFFSET	 0.000000	 0.207540	 0.000000
					CHANNELS 3 Zrotation Xrotation Yrotation
					End Site
					{
						OFFSET	 0.000000	 0.207540	 0.000000
					}
				}
			}
		}
	}
	JOINT Spine
	{
		OFFSET	 0.000184	 0.117403	 0.007763
		CHANNELS 3 Zrotation Xrotation Yrotation
		JOINT Spine1
		{
			OFFSET	 0.000000	 0.137269	 0.000000
			CHANNELS 3 Zrotation Xrotation Yrotation
			JOINT Spine2
			{
				OFFSET	 0.000000	 0.156879	 0.000000
				CHANNELS 3 Zrotation Xrotation Yrotation
				JOINT LeftShoulder
				{
					OFFSET	 0.080501	 0.160143	 0.002496
					CHANNELS 3 Zrotation Xrotation Yrotation
					JOINT LeftArm
					{
						OFFSET	 0.000000	 0.164363	 0.000000
						CHANNELS 3 Zrotation Xrotation Yrotation
						JOINT LeftForeArm
						{
							OFFSET	 0.000000	 0.364576	 0.000000
							CHANNELS 3 Zrotation Xrotation Yrotation
							JOINT LeftHand
							{
								OFFSET	 0.000000	 0.360812	 0.000000
								CHANNELS 3 Zrotation Xrotation Yrotation
								JOINT LeftHandIndex1
								{
									OFFSET	 0.000000	 0.086006	 0.000000
									CHANNELS 3 Zrotation Xrotation Yrotation
									JOINT LeftHandIndex2
									{
										OFFSET	 0.000000	 0.047237	 0.000000
										CHANNELS 3 Zrotation Xrotation Yrotation
										JOINT LeftHandIndex3
										{
											OFFSET	-0.004284	 0.038165	 0.000551
											CHANNELS 3 Zrotation Xrotation Yrotation
											End Site
											{
												OFFSET	-0.004284	 0.038165	 0.000551
											}
										}
									}
								}
							}
						}
					}
				}
				JOINT Neck
				{
					OFFSET	 0.000000	 0.176489	 0.000000
					CHANNELS 3 Zrotation Xrotation Yrotation
					JOINT Head
					{
						OFFSET	 0.000000	 0.077941	 0.001747
						CHANNELS 3 Zrotation Xrotation Yrotation
						End Site
						{
							OFFSET	 0.000000	 0.077941	 0.001747
						}
					}
				}
				JOINT RightShoulder
				{
					OFFSET	-0.080363	 0.159706	-0.000306
					CHANNELS 3 Zrotation Xrotation Yrotation
					JOINT RightArm
					{
						OFFSET	 0.000000	 0.164196	 0.000000
						CHANNELS 3 Zrotation Xrotation Yrotation
						JOINT RightForeArm
						{
							OFFSET	 0.000000	 0.365611	 0.000000
							CHANNELS 3 Zrotation Xrotation Yrotation
							JOINT RightHand
							{
								OFFSET	 0.000000	 0.360648	 0.000000
								CHANNELS 3 Zrotation Xrotation Yrotation
								JOINT RightHandIndex1
								{
									OFFSET	 0.000000	 0.069977	 0.000000
									CHANNELS 3 Zrotation Xrotation Yrotation
									JOINT RightHandIndex2
									{
										OFFSET	 0.000000	 0.052305	 0.000000
										CHANNELS 3 Zrotation Xrotation Yrotation
										JOINT RightHandIndex3
										{
											OFFSET	 0.009002	 0.042196	 0.000782
											CHANNELS 3 Zrotation Xrotation Yrotation
											End Site
											{
												OFFSET	 0.009002	 0.042196	 0.000782
											}
										}
									}
								}
							}
						}
					}
				}
			}
		}
	}
}
MOTION
Frames:    4
Frame Time: 0.03333334
 0.002478	 1.297246	 0.061686	-0.458491	 0.002943	-179.991600	-179.330500	 1.080609	-0.182114	 2.251965	-10.507880	-0.050338	-3.668165	 66.148090	 4.117317	 1.292262	 28.425850	-2.713146	 178.685700	 2.445520	 0.124386	-2.687564	-12.847760	-0.036401	 3.834649	 67.187740	-4.126135	-1.288183	 28.361890	 2.710176	-0.229602	 2.102221	 8.785885	-1.927842	 6.034148	 4.752838	 1.605380	-7.649510	-13.406220	-101.478000	 1.740668	 90.353390	-8.550759	 50.691860	 9.718637	 14.654730	 27.896550	-2.203421	 12.509850	-3.244602	 31.633090	-6.580301	 5.266122	 0.000000	 0.000000	 0.000000	 0.000000	 0.000000	 0.000000	 0.000000	 0.089846	-3.783161	 0.005928	 0.012184	 0.424093	-3.291421	 101.796200	-0.213326	-89.955440	-77.946180	 18.936360	 66.132870	-51.123370	 50.062100	 21.091800	 68.979090	-65.036410	-6.713816	 15.208500	 5.323790	 0.000000	 0.000000	 0.000000	 0.000000	 0.000000	 0.000000	 0.000000
 0.002433	 1.298256	 0.061616	-0.442356	 0.003839	-179.991600	-179.323100	 1.118505	-0.187188	 2.269469	-10.587680	-0.047137	-3.660298	 66.006290	 4.106633	 1.292262	 28.425850	-2.713146	 178.700000	 2.445875	 0.131647	-2.688070	-12.850090	-0.036516	 3.819331	 67.006000	-4.114367	-1.288183	 28.361890	 2.710176	-0.183997	 2.330487	 9.060637	-2.005943	 5.241502	 4.832911	 1.737599	-6.616715	-13.772210	-101.478000	 1.740673	 90.353390	-7.967395	 50.067290	 9.067459	 14.951390	 28.363390	-2.343341	 9.323400	 0.103704	 32.404480	-6.580301	 5.266122	 0.000000	 0.000000	 0.000000	 0.000000	 0.000000	 0.000000	 0.000000	 0.089846	-3.783161	 0.005928	 0.015483	 0.522447	-3.395019	 101.796200	-0.213310	-89.955440	-86.719860	 12.813720	 68.801510	-36.139630	 42.139090	 9.862306	 63.470330	-58.924840	-16.989980	 15.208500	 5.323790	 0.000000	 0.000000	 0.000000	 0.000000	 0.000000	 0.000000	 0.000000
 0.002397	 1.298936	 0.061570	-0.428960	 0.004135	-179.992100	-179.316000	 1.144713	-0.190458	 2.281457	-10.642310	-0.044927	-3.653873	 65.912140	 4.098209	 1.292262	 28.425850	-2.713146	 178.711100	 2.442086	 0.136668	-2.686453	-12.842630	-0.036157	 3.809003	 66.879710	-4.107340	-1.288183	 28.361890	 2.710176	-0.152614	 2.483246	 9.199483	-2.049881	 4.711131	 4.864097	 1.819187	-5.929713	-13.951840	-101.478000	 1.740675	 90.353390	-7.597482	 49.655600	 8.649561	 15.152390	 28.677010	-2.439223	 7.775363	 1.292132	 32.821780	-6.580301	 5.266122	 0.000000	 0.000000	 0.000000	 0.000000	 0.000000	 0.000000	 0.000000	 0.089846	-3.783161	 0.005928	 0.017805	 0.591636	-3.447521	 101.796200	-0.213308	-89.955460	-93.017660	 8.666080	 69.531130	-26.595410	 34.483040	 3.666432	 58.109010	-55.535340	-24.900410	 15.208500	 5.323790	 0.000000	 0.000000	 0.000000	 0.000000	 0.000000	 0.000000	 0.000000
 0.002356	 1.299616	 0.061523	-0.413825	 0.004580	-179.992300	-179.307200	 1.170980	-0.193678	 2.293535	-10.697320	-0.042691	-3.647897	 65.818760	 4.090358	 1.292262	 28.425850	-2.713146	 178.723200	 2.435171	 0.141900	-2.683523	-12.829090	-0.035504	 3.797849	 66.750960	-4.099977	-1.288183	 28.361890	 2.710176	-0.121173	 2.635673	 9.302985	-2.086817	 4.183585	 4.878357	 1.894340	-5.249422	-14.081120	-101.478000	 1.740661	 90.353370	-7.245136	 49.255800	 8.247141	 15.355440	 28.991820	-2.537209	 6.822250	 1.506766	 33.121050	-6.580301	 5.266122	 0.000000	 0.000000	 0.000000	 0.000000	 0.000000	 0.000000	 0.000000	 0.089846	-3.783161	 0.005928	 0.020185	 0.663119	-3.486934	 101.796200	-0.213323	-89.955450	-100.389600	 4.529968	 69.448300	-16.843160	 23.967160	-1.383815	 50.181040	-52.260040	-34.402530	 15.208500	 5.323790	 0.000000	 0.000000	 0.000000	 0.000000	 0.000000	 0.000000	 0.000000
